<svg width="65" height="32" viewBox="0 0 65 32" fill="none" xmlns="http://www.w3.org/2000/svg">
<path d="M32 25V17.025C30.9333 17.025 29.9083 16.8208 28.925 16.4125C27.9417 16.0042 27.075 15.425 26.325 14.675C25.575 13.925 25 13.0583 24.6 12.075C24.2 11.0917 24 10.0667 24 9V7H26C27.05 7 28.0667 7.20417 29.05 7.6125C30.0333 8.02083 30.9 8.6 31.65 9.35C32.1667 9.86667 32.5958 10.4333 32.9375 11.05C33.2792 11.6667 33.5417 12.325 33.725 13.025C33.8083 12.9083 33.9 12.7958 34 12.6875C34.1 12.5792 34.2083 12.4667 34.325 12.35C35.075 11.6 35.9417 11.0208 36.925 10.6125C37.9083 10.2042 38.9333 10 40 10H42V12C42 13.0667 41.7958 14.0917 41.3875 15.075C40.9792 16.0583 40.4 16.925 39.65 17.675C38.9 18.425 38.0375 19 37.0625 19.4C36.0875 19.8 35.0667 20 34 20V25H32ZM32 15C32 14.2 31.8458 13.4375 31.5375 12.7125C31.2292 11.9875 30.7917 11.3417 30.225 10.775C29.6583 10.2083 29.0125 9.77083 28.2875 9.4625C27.5625 9.15417 26.8 9 26 9C26 9.8 26.15 10.5667 26.45 11.3C26.75 12.0333 27.1833 12.6833 27.75 13.25C28.3167 13.8167 28.9667 14.25 29.7 14.55C30.4333 14.85 31.2 15 32 15ZM34 18C34.8 18 35.5625 17.85 36.2875 17.55C37.0125 17.25 37.6583 16.8167 38.225 16.25C38.7917 15.6833 39.2292 15.0333 39.5375 14.3C39.8458 13.5667 40 12.8 40 12C39.2 12 38.4333 12.1542 37.7 12.4625C36.9667 12.7708 36.3167 13.2083 35.75 13.775C35.1833 14.3417 34.75 14.9875 34.45 15.7125C34.15 16.4375 34 17.2 34 18Z" fill="#1C1B1F"/>
</svg>
