<svg width="25" height="24" viewBox="0 0 25 24" fill="none" xmlns="http://www.w3.org/2000/svg">
<path d="M12 21V13.025C10.9333 13.025 9.90833 12.8208 8.925 12.4125C7.94167 12.0042 7.075 11.425 6.325 10.675C5.575 9.925 5 9.05833 4.6 8.075C4.2 7.09167 4 6.06667 4 5V3H6C7.05 3 8.06667 3.20417 9.05 3.6125C10.0333 4.02083 10.9 4.6 11.65 5.35C12.1667 5.86667 12.5958 6.43333 12.9375 7.05C13.2792 7.66667 13.5417 8.325 13.725 9.025C13.8083 8.90833 13.9 8.79583 14 8.6875C14.1 8.57917 14.2083 8.46667 14.325 8.35C15.075 7.6 15.9417 7.02083 16.925 6.6125C17.9083 6.20417 18.9333 6 20 6H22V8C22 9.06667 21.7958 10.0917 21.3875 11.075C20.9792 12.0583 20.4 12.925 19.65 13.675C18.9 14.425 18.0375 15 17.0625 15.4C16.0875 15.8 15.0667 16 14 16V21H12ZM12 11C12 10.2 11.8458 9.4375 11.5375 8.7125C11.2292 7.9875 10.7917 7.34167 10.225 6.775C9.65833 6.20833 9.0125 5.77083 8.2875 5.4625C7.5625 5.15417 6.8 5 6 5C6 5.8 6.15 6.56667 6.45 7.3C6.75 8.03333 7.18333 8.68333 7.75 9.25C8.31667 9.81667 8.96667 10.25 9.7 10.55C10.4333 10.85 11.2 11 12 11ZM14 14C14.8 14 15.5625 13.85 16.2875 13.55C17.0125 13.25 17.6583 12.8167 18.225 12.25C18.7917 11.6833 19.2292 11.0333 19.5375 10.3C19.8458 9.56667 20 8.8 20 8C19.2 8 18.4333 8.15417 17.7 8.4625C16.9667 8.77083 16.3167 9.20833 15.75 9.775C15.1833 10.3417 14.75 10.9875 14.45 11.7125C14.15 12.4375 14 13.2 14 14Z" fill="#1C1B1F"/>
</svg>
