<svg width="28" height="32" viewBox="0 0 28 32" fill="none" xmlns="http://www.w3.org/2000/svg">
<path d="M13.9998 31.1666C10.3054 31.1666 7.15956 29.8888 4.56234 27.3333C1.96512 24.7777 0.666504 21.6666 0.666504 17.9999C0.666504 16.2499 1.00678 14.5763 1.68734 12.9791C2.36789 11.3819 3.33317 9.97214 4.58317 8.74992L11.6665 1.79159C11.9998 1.48603 12.3679 1.24992 12.7707 1.08325C13.1734 0.916585 13.5832 0.833252 13.9998 0.833252C14.4165 0.833252 14.8262 0.916585 15.229 1.08325C15.6318 1.24992 15.9998 1.48603 16.3332 1.79159L23.4165 8.74992C24.6665 9.97214 25.6318 11.3819 26.3123 12.9791C26.9929 14.5763 27.3332 16.2499 27.3332 17.9999C27.3332 21.6666 26.0346 24.7777 23.4373 27.3333C20.8401 29.8888 17.6943 31.1666 13.9998 31.1666Z" fill="#649BDB"/>
</svg>
